<?xml version="1.0" encoding="utf-8"?>
<!-- Generator: Adobe Illustrator 21.1.0, SVG Export Plug-In . SVG Version: 6.00 Build 0)  -->
<svg version="1.1" id="Layer_2" xmlns="http://www.w3.org/2000/svg" xmlns:xlink="http://www.w3.org/1999/xlink" x="0px" y="0px"
	 viewBox="0 0 68.7 68" style="enable-background:new 0 0 68.7 68;" xml:space="preserve">
<style type="text/css">
	.st0{clip-path:url(#SVGID_2_);}
	.st1{fill:#00B6E0;}
	.st2{fill:#FCE304;}
	.st3{fill:#E22032;}
	.st4{fill:#0C5297;}
	.st5{fill:#2EB14B;}
</style>
<g>
	<defs>
		<path id="SVGID_1_" d="M34.3,1.9C16.6,1.9,2.2,16.3,2.2,34s14.4,32.1,32.1,32.1S66.4,51.7,66.4,34S52.1,1.9,34.3,1.9z M34.3,60.4
			C19.7,60.4,7.9,48.6,7.9,34S19.7,7.6,34.3,7.6S60.8,19.4,60.8,34S48.9,60.4,34.3,60.4z"/>
	</defs>
	<clipPath id="SVGID_2_">
		<use xlink:href="#SVGID_1_"  style="overflow:visible;"/>
	</clipPath>
	<g class="st0">
		<polygon class="st1" points="34.3,34 5,-13.6 21.8,-21.3 		"/>
		<polygon class="st2" points="34.3,34 21.3,-20.4 25.3,-20.8 		"/>
		<g>
			<polygon class="st2" points="34.3,34 -3.5,-7.2 -0.5,-10.7 			"/>
			<polygon class="st3" points="34.3,34 -0.6,-9.7 5.2,-14.2 			"/>
			<polygon class="st4" points="34.3,34 24.5,-21.1 31.3,-21.4 			"/>
		</g>
		<g>
			<polygon class="st4" points="34.3,34 25.8,89.3 8.1,84.3 			"/>
			<polygon class="st1" points="34.3,34 9,83.9 5.7,81.6 			"/>
			<g>
				<polygon class="st3" points="34.3,34 36.4,89.9 31.9,90.6 				"/>
				<polygon class="st2" points="34.3,34 32.6,89.9 25.3,89.6 				"/>
				<polygon class="st5" points="34.3,34 6.1,82.3 0.7,78.2 				"/>
			</g>
		</g>
		<polygon class="st1" points="34.3,34 31,-21.8 37.7,-21.4 		"/>
		<polygon class="st2" points="34.1,34.1 90,37.4 88.8,44 		"/>
		<polygon class="st4" points="34.1,34.1 89.2,43.9 87.2,50.3 		"/>
		<polygon class="st1" points="34.1,34.1 87.7,50.1 81.2,62.3 		"/>
		<polygon class="st2" points="34.2,34 82.3,62.5 79.2,65.9 		"/>
		<polygon class="st5" points="34.3,34 37.4,-21.9 50.8,-18.3 		"/>
		<polygon class="st1" points="34.2,34 50.8,-19.5 54.8,-17.2 		"/>
		<polygon class="st5" points="34.2,34 54.9,-18 62.3,-13.1 		"/>
		<g>
			<polygon class="st3" points="34.1,34.1 80.3,65.6 70.4,75.2 			"/>
			<polygon class="st1" points="34.2,34 71.4,75.7 67.4,78 			"/>
			<polygon class="st2" points="34.2,34 68,78.5 60,82.4 			"/>
			<polygon class="st5" points="34.2,34 61,83.1 38.9,88.3 			"/>
		</g>
		<g>
			<polygon class="st3" points="34.2,33.8 -21.7,35.2 -19.3,21.6 			"/>
			<polygon class="st1" points="34.2,34 -20.4,21.7 -18.5,17.5 			"/>
			<polygon class="st5" points="34.2,34 -19.3,17.5 -15,9.7 			"/>
			<polygon class="st4" points="34.2,34 -16.2,9.6 -1.2,-7.4 			"/>
		</g>
		<polygon class="st1" points="34.2,34 39.9,89.6 35.3,88.8 		"/>
		<g>
			<polygon class="st5" points="34.1,34.1 87.3,16.7 90.8,34.8 			"/>
			<polygon class="st1" points="34.1,34.1 90.1,34.1 89.6,38.1 			"/>
			<polygon class="st3" points="34.2,34 62.4,-14.3 78.3,1.9 			"/>
			<polygon class="st1" points="34.2,34 78.9,0.4 80.6,4.7 			"/>
			<polygon class="st5" points="34.2,34 81.2,3.6 84.8,15.2 			"/>
			<polygon class="st2" points="34.2,34 86.3,13.7 86.7,17.2 			"/>
		</g>
		<polygon class="st4" points="34.3,33.8 -20.3,46.1 -22.1,27.7 		"/>
		<polygon class="st2" points="34.3,33.8 -21.4,28.5 -20.5,24.6 		"/>
		<polygon class="st3" points="34.2,34 1.5,79.3 -12.7,61.7 		"/>
		<polygon class="st1" points="34.2,34 -13.5,63.1 -14.8,58.6 		"/>
		<polygon class="st5" points="34.2,34 -15.5,59.7 -18,47.8 		"/>
		<polygon class="st2" points="34.2,34 -19.6,49.2 -19.7,45.7 		"/>
	</g>
</g>
</svg>
