<?xml version="1.0" encoding="utf-8"?>
<!-- Generator: Adobe Illustrator 21.1.0, SVG Export Plug-In . SVG Version: 6.00 Build 0)  -->
<svg version="1.1" id="Layer_2" xmlns="http://www.w3.org/2000/svg" xmlns:xlink="http://www.w3.org/1999/xlink" x="0px" y="0px"
	 viewBox="0 0 451.3 146" style="enable-background:new 0 0 451.3 146;" xml:space="preserve">
<style type="text/css">
	.st0{clip-path:url(#SVGID_2_);}
	.st1{fill:#00B6E0;}
	.st2{fill:#FCE304;}
	.st3{fill:#E22032;}
	.st4{fill:#0C5297;}
	.st5{fill:#2EB14B;}
</style>
<g>
	<g>
		<defs>
			<path id="SVGID_1_" d="M61.4,32.3c-17.7,0-32.1,14.4-32.1,32.1s14.4,32.1,32.1,32.1s32.1-14.4,32.1-32.1S79.1,32.3,61.4,32.3z
				 M61.4,90.8C46.8,90.8,35,79,35,64.4S46.8,38,61.4,38s26.4,11.8,26.4,26.4S76,90.8,61.4,90.8z"/>
		</defs>
		<clipPath id="SVGID_2_">
			<use xlink:href="#SVGID_1_"  style="overflow:visible;"/>
		</clipPath>
		<g class="st0">
			<polygon class="st1" points="61.4,64.4 32,16.8 48.8,9.1 			"/>
			<polygon class="st2" points="61.4,64.4 48.3,10 52.3,9.6 			"/>
			<g>
				<polygon class="st2" points="61.4,64.4 23.5,23.2 26.5,19.7 				"/>
				<polygon class="st3" points="61.4,64.4 26.4,20.7 32.2,16.2 				"/>
				<polygon class="st4" points="61.4,64.4 51.5,9.3 58.3,9 				"/>
			</g>
			<g>
				<polygon class="st4" points="61.4,64.4 52.8,119.7 35.1,114.7 				"/>
				<polygon class="st1" points="61.4,64.4 36,114.3 32.7,112.1 				"/>
				<g>
					<polygon class="st3" points="61.4,64.4 63.5,120.3 58.9,121 					"/>
					<polygon class="st2" points="61.4,64.4 59.6,120.3 52.3,120 					"/>
					<polygon class="st5" points="61.4,64.4 33.1,112.7 27.8,108.6 					"/>
				</g>
			</g>
			<polygon class="st1" points="61.4,64.4 58,8.6 64.8,9 			"/>
			<polygon class="st2" points="61.2,64.5 117,67.8 115.8,74.5 			"/>
			<polygon class="st4" points="61.2,64.5 116.3,74.3 114.3,80.7 			"/>
			<polygon class="st1" points="61.2,64.5 114.8,80.6 108.2,92.7 			"/>
			<polygon class="st2" points="61.2,64.4 109.3,93 106.2,96.4 			"/>
			<polygon class="st5" points="61.4,64.4 64.5,8.6 77.8,12.1 			"/>
			<polygon class="st1" points="61.2,64.4 77.8,11 81.8,13.2 			"/>
			<polygon class="st5" points="61.2,64.4 81.9,12.4 89.3,17.3 			"/>
			<g>
				<polygon class="st3" points="61.1,64.5 107.4,96 97.5,105.6 				"/>
				<polygon class="st1" points="61.2,64.4 98.4,106.2 94.5,108.5 				"/>
				<polygon class="st2" points="61.2,64.4 95.1,108.9 87,112.8 				"/>
				<polygon class="st5" points="61.2,64.4 88,113.5 65.9,118.7 				"/>
			</g>
			<g>
				<polygon class="st3" points="61.2,64.3 5.3,65.6 7.8,52 				"/>
				<polygon class="st1" points="61.2,64.4 6.7,52.1 8.5,47.9 				"/>
				<polygon class="st5" points="61.2,64.4 7.8,47.9 12.1,40.1 				"/>
				<polygon class="st4" points="61.2,64.4 10.9,40.1 25.8,23 				"/>
			</g>
			<polygon class="st1" points="61.2,64.4 66.9,120 62.3,119.3 			"/>
			<g>
				<polygon class="st5" points="61.2,64.5 114.3,47.1 117.9,65.2 				"/>
				<polygon class="st1" points="61.2,64.5 117.1,64.5 116.6,68.5 				"/>
				<polygon class="st3" points="61.2,64.4 89.5,16.1 105.3,32.3 				"/>
				<polygon class="st1" points="61.2,64.4 105.9,30.8 107.7,35.1 				"/>
				<polygon class="st5" points="61.2,64.4 108.2,34 111.9,45.6 				"/>
				<polygon class="st2" points="61.2,64.4 113.4,44.1 113.7,47.6 				"/>
			</g>
			<polygon class="st4" points="61.3,64.3 6.7,76.5 4.9,58.2 			"/>
			<polygon class="st2" points="61.3,64.3 5.6,58.9 6.5,55 			"/>
			<polygon class="st3" points="61.2,64.4 28.5,109.8 14.3,92.1 			"/>
			<polygon class="st1" points="61.2,64.4 13.5,93.6 12.2,89 			"/>
			<polygon class="st5" points="61.2,64.4 11.6,90.1 9,78.2 			"/>
			<polygon class="st2" points="61.2,64.4 7.4,79.6 7.4,76.1 			"/>
		</g>
	</g>
	<g>
		<path class="st1" d="M142.9,64.3c-0.3-5.6-0.7-12.4-0.6-17.5h-0.2c-1.4,4.7-3.1,9.8-5.1,15.4l-7.1,19.6h-4l-6.5-19.3
			c-1.9-5.7-3.5-10.9-4.7-15.7h-0.1c-0.1,5-0.4,11.8-0.8,17.9L112.7,82h-5l2.8-40.4h6.7l6.9,19.6c1.7,5,3.1,9.4,4.1,13.6h0.2
			c1-4.1,2.5-8.5,4.3-13.6l7.2-19.6h6.7L149,82h-5.1L142.9,64.3z"/>
		<path class="st1" d="M157.1,42.1c3.2-0.5,7-0.8,11.1-0.8c7.5,0,12.8,1.7,16.4,5c3.6,3.3,5.7,8,5.7,14.5c0,6.6-2,12-5.8,15.7
			c-3.8,3.8-10,5.8-17.9,5.8c-3.7,0-6.8-0.2-9.5-0.5V42.1z M162.3,77.9c1.3,0.2,3.2,0.3,5.3,0.3c11.2,0,17.2-6.2,17.2-17.2
			c0.1-9.5-5.3-15.6-16.4-15.6c-2.7,0-4.7,0.2-6.1,0.5V77.9z"/>
		<path class="st1" d="M231.1,64.3c-0.3-5.6-0.7-12.4-0.6-17.5h-0.2c-1.4,4.7-3.1,9.8-5.1,15.4l-7.1,19.6h-4l-6.5-19.3
			c-1.9-5.7-3.5-10.9-4.7-15.7h-0.1c-0.1,5-0.4,11.8-0.8,17.9L200.9,82h-5l2.8-40.4h6.7l6.9,19.6c1.7,5,3.1,9.4,4.1,13.6h0.2
			c1-4.1,2.5-8.5,4.3-13.6l7.2-19.6h6.7l2.5,40.4h-5.1L231.1,64.3z"/>
		<path class="st1" d="M251.2,69.3L247,82h-5.4l13.7-40.4h6.3L275.5,82h-5.6l-4.3-12.7H251.2z M264.5,65.2l-4-11.6
			c-0.9-2.6-1.5-5-2.1-7.4h-0.1c-0.6,2.4-1.3,4.9-2,7.3l-4,11.7H264.5z"/>
	</g>
	<g>
		<path class="st1" d="M108.1,109.3V94.3l2.2,0l5.2,13l5.1-13l2.2,0v14.9h-1.4V96.1l-5.2,13.2h-1.3l-5.2-13.2v13.2H108.1z"/>
		<path class="st1" d="M134.7,107.5c-0.4,0.6-1.1,1.1-1.8,1.5c-0.8,0.4-1.6,0.6-2.5,0.6c-1.6,0-3-0.6-4.1-1.7
			c-1.1-1.1-1.7-2.5-1.7-4.2c0-1.7,0.6-3.1,1.7-4.2c1.1-1.1,2.5-1.7,4.2-1.7c0.9,0,1.7,0.2,2.4,0.5c0.7,0.4,1.3,0.9,1.8,1.5V98h1.4
			v11.3h-1.4V107.5z M134.7,103.5c0-1.2-0.4-2.2-1.3-3.1c-0.9-0.9-1.8-1.3-3-1.3c-1.2,0-2.2,0.4-3.1,1.3c-0.9,0.9-1.3,2-1.3,3.3
			c0,1.3,0.4,2.3,1.3,3.2c0.8,0.9,1.9,1.3,3.1,1.3c1.1,0,2.1-0.5,3-1.4C134.2,105.9,134.7,104.8,134.7,103.5z"/>
		<path class="st1" d="M139,98l2.6,4.3l2.8-4.3l1.7,0l-3.7,5.4l3.6,5.9l-1.6,0l-2.9-4.7l-3,4.7l-1.6,0l3.8-5.8l-3.4-5.4H139z"/>
		<path class="st1" d="M147,98h1.4v6c0,1.5,0.2,2.6,0.7,3.3c0.5,0.6,1.3,1,2.5,1c0.6,0,1.2-0.1,1.7-0.4c0.5-0.3,0.9-0.6,1.2-1.1
			c0.2-0.3,0.3-0.6,0.4-1c0.1-0.4,0.1-1.1,0.1-2.1V98h1.4v11.3H155V108c-0.4,0.5-0.9,0.9-1.5,1.1c-0.5,0.2-1.2,0.4-2,0.4
			c-1.6,0-2.8-0.4-3.5-1.3c-0.7-0.9-1.1-2.3-1.1-4.4V98z"/>
		<path class="st1" d="M158.1,105.7h1.5v0c0,0.7,0.2,1.3,0.6,1.7c0.4,0.5,0.9,0.7,1.5,0.7c0.6,0,1-0.2,1.4-0.5
			c0.4-0.4,0.6-0.8,0.6-1.3c0-0.5-0.1-1-0.4-1.3c-0.3-0.3-0.8-0.6-1.6-0.9c-1.2-0.4-2.1-0.9-2.4-1.4c-0.4-0.5-0.6-1.1-0.6-1.9
			c0-0.9,0.3-1.6,1-2.2c0.6-0.6,1.4-0.9,2.3-0.9c1,0,1.7,0.3,2.3,0.8c0.3,0.3,0.5,0.6,0.7,1c0.2,0.4,0.2,0.8,0.2,1.3h-1.5
			c0-0.3,0-0.5-0.1-0.7c-0.1-0.2-0.2-0.4-0.4-0.5c-0.2-0.2-0.3-0.3-0.5-0.3c-0.2-0.1-0.4-0.1-0.7-0.1c-0.5,0-0.9,0.2-1.2,0.5
			s-0.5,0.7-0.5,1.2c0,0.3,0.1,0.6,0.2,0.8c0.1,0.2,0.3,0.4,0.6,0.6c0.3,0.2,0.7,0.3,1.2,0.5c0.5,0.2,0.9,0.3,1,0.3
			c0.7,0.3,1.2,0.7,1.5,1.2c0.3,0.5,0.5,1.1,0.5,1.9c0,1-0.3,1.8-1,2.4s-1.5,1-2.6,1c-1.1,0-1.9-0.3-2.6-1c-0.3-0.4-0.6-0.8-0.8-1.2
			C158.1,106.8,158.1,106.3,158.1,105.7z"/>
		<path class="st1" d="M173.1,94.3h4.2c0.6,0,1.1,0,1.6,0.1c0.5,0.1,0.9,0.1,1.3,0.3c0.8,0.2,1.5,0.6,2.1,1.1c0.8,0.7,1.5,1.6,2,2.6
			c0.5,1,0.7,2.2,0.7,3.3c0,1.3-0.3,2.5-0.8,3.6c-0.5,1.1-1.3,2-2.2,2.6c-0.6,0.4-1.3,0.8-2.1,1c-0.7,0.2-1.9,0.3-3.4,0.3h-3.6V94.3
			z M174.5,95.8v12.1h3c1.9,0,3.3-0.5,4.4-1.6s1.5-2.6,1.5-4.5c0-1-0.2-1.9-0.5-2.7s-0.8-1.5-1.5-2.1c-0.5-0.4-1-0.7-1.6-0.9
			s-1.5-0.3-2.6-0.3H174.5z"/>
		<path class="st1" d="M196.4,107.5c-0.4,0.6-1.1,1.1-1.8,1.5c-0.8,0.4-1.6,0.6-2.5,0.6c-1.6,0-3-0.6-4.1-1.7
			c-1.1-1.1-1.7-2.5-1.7-4.2c0-1.7,0.6-3.1,1.7-4.2c1.1-1.1,2.5-1.7,4.2-1.7c0.9,0,1.7,0.2,2.4,0.5c0.7,0.4,1.3,0.9,1.8,1.5V98h1.4
			v11.3h-1.4V107.5z M196.4,103.5c0-1.2-0.4-2.2-1.3-3.1c-0.9-0.9-1.8-1.3-3-1.3c-1.2,0-2.2,0.4-3.1,1.3c-0.9,0.9-1.3,2-1.3,3.3
			c0,1.3,0.4,2.3,1.3,3.2c0.8,0.9,1.9,1.3,3.1,1.3c1.1,0,2.1-0.5,3-1.4C196,105.9,196.4,104.8,196.4,103.5z"/>
		<path class="st1" d="M201.1,109.3v-9.8h-2.1V98h2.1v-3.7h1.4V98h2.1v1.5h-2.1v9.8H201.1z"/>
		<path class="st1" d="M215.4,107.5c-0.4,0.6-1.1,1.1-1.8,1.5c-0.8,0.4-1.6,0.6-2.5,0.6c-1.6,0-3-0.6-4.1-1.7
			c-1.1-1.1-1.7-2.5-1.7-4.2c0-1.7,0.6-3.1,1.7-4.2c1.1-1.1,2.5-1.7,4.2-1.7c0.9,0,1.7,0.2,2.4,0.5c0.7,0.4,1.3,0.9,1.8,1.5V98h1.4
			v11.3h-1.4V107.5z M215.4,103.5c0-1.2-0.4-2.2-1.3-3.1c-0.9-0.9-1.8-1.3-3-1.3c-1.2,0-2.2,0.4-3.1,1.3c-0.9,0.9-1.3,2-1.3,3.3
			c0,1.3,0.4,2.3,1.3,3.2c0.8,0.9,1.9,1.3,3.1,1.3c1.1,0,2.1-0.5,3-1.4C214.9,105.9,215.4,104.8,215.4,103.5z"/>
		<path class="st1" d="M225.3,109.3V94.3l2.2,0l5.2,13l5.1-13l2.2,0v14.9h-1.4V96.1l-5.3,13.2H232l-5.3-13.2v13.2H225.3z"/>
		<path class="st1" d="M251.9,107.5c-0.4,0.6-1.1,1.1-1.8,1.5c-0.8,0.4-1.6,0.6-2.5,0.6c-1.6,0-3-0.6-4.1-1.7
			c-1.1-1.1-1.7-2.5-1.7-4.2c0-1.7,0.6-3.1,1.7-4.2c1.1-1.1,2.5-1.7,4.2-1.7c0.9,0,1.7,0.2,2.4,0.5c0.7,0.4,1.3,0.9,1.8,1.5V98h1.4
			v11.3h-1.4V107.5z M251.9,103.5c0-1.2-0.4-2.2-1.3-3.1c-0.9-0.9-1.8-1.3-3-1.3c-1.2,0-2.2,0.4-3.1,1.3c-0.9,0.9-1.3,2-1.3,3.3
			c0,1.3,0.4,2.3,1.3,3.2c0.8,0.9,1.9,1.3,3.1,1.3c1.1,0,2.1-0.5,3-1.4C251.4,105.9,251.9,104.8,251.9,103.5z"/>
		<path class="st1" d="M255.6,98h1.4v1.3c0.4-0.5,1-0.9,1.5-1.1c0.6-0.2,1.3-0.4,2-0.4c0.8,0,1.5,0.2,2.2,0.5
			c0.7,0.3,1.2,0.7,1.5,1.3c0.3,0.4,0.4,0.9,0.6,1.4c0.1,0.5,0.2,1.3,0.2,2.4v5.9h-1.4v-6.3c0-1.3-0.3-2.3-0.8-2.9
			c-0.5-0.6-1.3-0.9-2.4-0.9c-0.6,0-1.2,0.1-1.7,0.4c-0.5,0.3-0.9,0.6-1.2,1.1c-0.2,0.3-0.3,0.7-0.4,1.1c-0.1,0.4-0.1,1.1-0.1,2.1
			v5.5h-1.4V98z"/>
		<path class="st1" d="M276.8,107.5c-0.4,0.6-1.1,1.1-1.8,1.5c-0.8,0.4-1.6,0.6-2.5,0.6c-1.6,0-3-0.6-4.1-1.7
			c-1.1-1.1-1.7-2.5-1.7-4.2c0-1.7,0.6-3.1,1.7-4.2c1.1-1.1,2.5-1.7,4.2-1.7c0.9,0,1.7,0.2,2.4,0.5c0.7,0.4,1.3,0.9,1.8,1.5V98h1.4
			v11.3h-1.4V107.5z M276.8,103.5c0-1.2-0.4-2.2-1.3-3.1c-0.9-0.9-1.8-1.3-3-1.3c-1.2,0-2.2,0.4-3.1,1.3c-0.9,0.9-1.3,2-1.3,3.3
			c0,1.3,0.4,2.3,1.3,3.2c0.8,0.9,1.9,1.3,3.1,1.3c1.1,0,2.1-0.5,3-1.4C276.4,105.9,276.8,104.8,276.8,103.5z"/>
		<path class="st1" d="M282.4,110.2c0.2,0.7,0.6,1.2,1.2,1.5c0.6,0.4,1.3,0.5,2.1,0.5c1.3,0,2.3-0.4,3.1-1.3c0.8-0.9,1.2-2,1.2-3.4
			v-0.3c-0.5,0.7-1.2,1.3-1.9,1.7c-0.7,0.4-1.5,0.6-2.3,0.6c-1.7,0-3.1-0.6-4.2-1.7c-1.1-1.1-1.7-2.5-1.7-4.2c0-1.7,0.6-3.1,1.7-4.2
			c1.1-1.1,2.5-1.7,4.1-1.7c1,0,1.8,0.2,2.5,0.5c0.7,0.3,1.3,0.9,1.8,1.6V98h1.4v9.4c0,2-0.5,3.5-1.5,4.6c-1,1.1-2.4,1.7-4.1,1.7
			c-1.3,0-2.4-0.3-3.3-0.9c-0.9-0.6-1.5-1.5-1.8-2.5H282.4z M281.4,103.5c0,1.3,0.4,2.4,1.3,3.3c0.8,0.9,1.9,1.3,3,1.3
			c1.1,0,2.1-0.4,3-1.3c0.9-0.9,1.3-1.9,1.3-3.1c0-1.3-0.4-2.4-1.3-3.3c-0.8-0.9-1.8-1.4-3-1.4c-1.2,0-2.2,0.4-3,1.3
			C281.9,101.2,281.4,102.3,281.4,103.5z"/>
		<path class="st1" d="M302.5,99.7c0.5-0.6,1-1.1,1.7-1.5c0.7-0.3,1.4-0.5,2.3-0.5c1.5,0,2.6,0.5,3.3,1.4c0.7,0.9,1.1,2.4,1.1,4.4
			v5.7h-1.4v-6c0-1.5-0.2-2.5-0.7-3.2s-1.3-1-2.4-1c-0.6,0-1.2,0.1-1.7,0.4s-0.9,0.6-1.2,1.1c-0.2,0.3-0.3,0.7-0.4,1.1
			c0,0.2-0.1,0.5-0.1,0.8c0,0.3,0,0.8,0,1.3v5.5h-1.4v-6.3c0-1.3-0.3-2.3-0.8-2.9c-0.5-0.6-1.3-0.9-2.4-0.9c-0.6,0-1.2,0.1-1.7,0.4
			c-0.5,0.3-0.9,0.6-1.2,1.1c-0.2,0.3-0.3,0.7-0.4,1.1c-0.1,0.4-0.1,1.1-0.1,2.1v5.5h-1.4V98h1.4v1.3c0.4-0.5,0.9-0.9,1.5-1.1
			c0.6-0.3,1.3-0.4,2-0.4c0.9,0,1.6,0.2,2.3,0.5C301.6,98.6,302.1,99.1,302.5,99.7z"/>
		<path class="st1" d="M324.3,104.1h-10.2c0,0.6,0.1,1.2,0.4,1.7c0.2,0.5,0.5,0.9,1,1.3c0.8,0.8,1.8,1.1,3,1.1
			c0.8,0,1.6-0.2,2.3-0.7c0.7-0.4,1.2-1.1,1.6-1.8h1.6c-0.5,1.2-1.2,2.2-2.2,2.9c-0.9,0.7-2,1-3.3,1c-1.6,0-3-0.6-4.2-1.8
			c-1.1-1.2-1.7-2.6-1.7-4.2c0-1.7,0.6-3.1,1.7-4.3c1.1-1.1,2.5-1.7,4.3-1.7c1.7,0,3.1,0.6,4.1,1.8c1.1,1.2,1.6,2.7,1.6,4.5V104.1z
			 M322.7,102.8c-0.3-1.3-0.8-2.2-1.5-2.8c-0.7-0.6-1.7-1-2.9-1c-0.5,0-1,0.1-1.5,0.3c-0.5,0.2-0.9,0.4-1.3,0.8
			c-0.8,0.7-1.2,1.6-1.4,2.8H322.7z"/>
		<path class="st1" d="M325.9,98h1.4v1.3c0.4-0.5,1-0.9,1.5-1.1c0.6-0.2,1.3-0.4,2-0.4c0.8,0,1.5,0.2,2.2,0.5
			c0.7,0.3,1.2,0.7,1.5,1.3c0.3,0.4,0.4,0.9,0.6,1.4c0.1,0.5,0.2,1.3,0.2,2.4v5.9h-1.4v-6.3c0-1.3-0.3-2.3-0.8-2.9
			c-0.5-0.6-1.3-0.9-2.4-0.9c-0.6,0-1.2,0.1-1.7,0.4c-0.5,0.3-0.9,0.6-1.2,1.1c-0.2,0.3-0.3,0.7-0.4,1.1c-0.1,0.4-0.1,1.1-0.1,2.1
			v5.5h-1.4V98z"/>
		<path class="st1" d="M338.6,109.3v-9.8h-2.1V98h2.1v-3.7h1.4V98h2.1v1.5h-2.1v9.8H338.6z"/>
		<path class="st1" d="M349.2,109.3l-1.6,0l5.8-14.9h1.8l5.8,14.9l-1.6,0l-1.8-4.7H351L349.2,109.3z M357.1,103.2l-2.8-7.5l-2.8,7.5
			H357.1z"/>
		<path class="st1" d="M361.9,109.3V94.3h1.4v14.9H361.9z"/>
		<path class="st1" d="M365.7,109.3V94.3h1.4v14.9H365.7z"/>
		<path class="st1" d="M370.9,96.7h-1.4v-2.3h1.4V96.7z M369.5,109.3V98h1.4v11.3H369.5z"/>
		<path class="st1" d="M382.8,107.5c-0.4,0.6-1.1,1.1-1.8,1.5c-0.8,0.4-1.6,0.6-2.5,0.6c-1.6,0-3-0.6-4.1-1.7
			c-1.1-1.1-1.7-2.5-1.7-4.2c0-1.7,0.6-3.1,1.7-4.2c1.1-1.1,2.5-1.7,4.2-1.7c0.9,0,1.7,0.2,2.4,0.5c0.7,0.4,1.3,0.9,1.8,1.5V98h1.4
			v11.3h-1.4V107.5z M382.8,103.5c0-1.2-0.4-2.2-1.3-3.1c-0.9-0.9-1.8-1.3-3-1.3c-1.2,0-2.2,0.4-3.1,1.3c-0.9,0.9-1.3,2-1.3,3.3
			c0,1.3,0.4,2.3,1.3,3.2c0.8,0.9,1.9,1.3,3.1,1.3c1.1,0,2.1-0.5,3-1.4C382.4,105.9,382.8,104.8,382.8,103.5z"/>
		<path class="st1" d="M386.5,98h1.4v1.3c0.4-0.5,1-0.9,1.5-1.1c0.6-0.2,1.3-0.4,2-0.4c0.8,0,1.5,0.2,2.2,0.5
			c0.7,0.3,1.2,0.7,1.5,1.3c0.3,0.4,0.4,0.9,0.6,1.4c0.1,0.5,0.2,1.3,0.2,2.4v5.9h-1.4v-6.3c0-1.3-0.3-2.3-0.8-2.9
			c-0.5-0.6-1.3-0.9-2.4-0.9c-0.6,0-1.2,0.1-1.7,0.4c-0.5,0.3-0.9,0.6-1.2,1.1c-0.2,0.3-0.3,0.7-0.4,1.1c-0.1,0.4-0.1,1.1-0.1,2.1
			v5.5h-1.4V98z"/>
		<path class="st1" d="M407.2,101.4c-0.4-0.8-1-1.4-1.6-1.8c-0.6-0.4-1.4-0.6-2.3-0.6c-1.2,0-2.1,0.4-3,1.3c-0.8,0.9-1.2,2-1.2,3.3
			c0,1.3,0.4,2.4,1.2,3.3c0.8,0.9,1.8,1.3,3,1.3c0.9,0,1.6-0.2,2.3-0.6c0.7-0.4,1.2-1,1.5-1.8h1.6c-0.4,1.2-1.1,2.2-2.1,2.8
			c-0.9,0.7-2,1-3.3,1c-1.6,0-3-0.6-4.1-1.7c-1.1-1.2-1.7-2.6-1.7-4.2c0-1.7,0.6-3.1,1.7-4.2c1.1-1.2,2.5-1.7,4.2-1.7
			c1.2,0,2.3,0.3,3.2,1c0.9,0.7,1.6,1.6,2.1,2.8H407.2z"/>
		<path class="st1" d="M422,104.1h-10.2c0,0.6,0.1,1.2,0.4,1.7c0.2,0.5,0.5,0.9,1,1.3c0.8,0.8,1.8,1.1,3,1.1c0.8,0,1.6-0.2,2.3-0.7
			c0.7-0.4,1.2-1.1,1.6-1.8h1.6c-0.5,1.2-1.2,2.2-2.2,2.9c-0.9,0.7-2,1-3.3,1c-1.6,0-3-0.6-4.2-1.8c-1.1-1.2-1.7-2.6-1.7-4.2
			c0-1.7,0.6-3.1,1.7-4.3c1.1-1.1,2.5-1.7,4.3-1.7c1.7,0,3.1,0.6,4.1,1.8c1.1,1.2,1.6,2.7,1.6,4.5V104.1z M420.4,102.8
			c-0.3-1.3-0.8-2.2-1.5-2.8c-0.7-0.6-1.7-1-2.9-1c-0.5,0-1,0.1-1.5,0.3c-0.5,0.2-0.9,0.4-1.3,0.8c-0.8,0.7-1.2,1.6-1.4,2.8H420.4z"
			/>
	</g>
</g>
</svg>
